PathFileType	3	(X/Y/Z)	D:\VICON_DB\Goncalves\Pilot01\09-03-2026\bw_sq_120_02.trc
DataRate	CameraRate	NumFrames	NumMarkers	Units	OrigDataRate	OrigDataStartFrame	OrigNumFrames
200.0	200.0	9	34	mm	200.0	591	787	
Frame#	Time	LASI			RASI			LPSI			RPSI			LTHI			LTHAP			LTHAD			LKNE			LKNM			LTIB			LTIAP			LTIAD			LANK			LMED			LHEE			LTOE			LFMH			LSMH			LVMH			RTHI			RTHAP			RTHAD			RKNE			RKNM			RTIB			RTIAP			RTIAD			RANK			RMED			RHEE			RTOE			RFMH			RSMH			RVMH			
		X1	Y1	Z1	X2	Y2	Z2	X3	Y3	Z3	X4	Y4	Z4	X5	Y5	Z5	X6	Y6	Z6	X7	Y7	Z7	X8	Y8	Z8	X9	Y9	Z9	X10	Y10	Z10	X11	Y11	Z11	X12	Y12	Z12	X13	Y13	Z13	X14	Y14	Z14	X15	Y15	Z15	X16	Y16	Z16	X17	Y17	Z17	X18	Y18	Z18	X19	Y19	Z19	X20	Y20	Z20	X21	Y21	Z21	X22	Y22	Z22	X23	Y23	Z23	X24	Y24	Z24	X25	Y25	Z25	X26	Y26	Z26	X27	Y27	Z27	X28	Y28	Z28	X29	Y29	Z29	X30	Y30	Z30	X31	Y31	Z31	X32	Y32	Z32	X33	Y33	Z33	X34	Y34	Z34	
591	2.95	109.32632	886.92346	-1089.7213	114.97544	895.22809	-1353.4993				304.70596	946.73291	-1247.8951	124.23551	696.38776	-1031.5083	141.62378	766.13098	-1033.0396	166.32916	637.6413	-994.20099	197.11192	476.68494	-991.13495				252.40501	288.80624	-952.81732	174.14659	351.4082	-1000.1916	208.46466	254.85149	-963.15704	287.95889	74.974884	-946.90808				322.55402	65.168159	-1004.2377	205.64084	71.988594	-952.62158	148.66368	44.992382	-973.82312				169.41623	25.409584	-895.8526	161.91516	635.29388	-1434.1881	124.63545	758.28174	-1396.064	104.81685	666.70862	-1390.309	198.95345	495.02469	-1425.9465				228.79164	302.15601	-1462.328	174.23506	344.36591	-1414.4364	185.74487	263.72726	-1423.759	279.36624	64.668938	-1454.5056				308.38025	61.37999	-1406.6157	185.18671	68.961845	-1453.6235	132.29648	49.497822	-1435.1564				155.99011	16.940767	-1505.0143
592	2.955	107.97163	887.28491	-1089.681	113.85487	895.45123	-1353.5321				303.71747	946.38483	-1247.6842	123.3244	696.17084	-1031.6652	140.2963	766.13202	-1032.9957	165.8476	637.52899	-994.58044	197.8231	476.76419	-991.77185				252.99057	288.93753	-953.27563	174.96591	351.62228	-1000.8138	208.97571	255.07155	-963.56567	288.03363	75.022278	-946.92444				322.60202	65.095474	-1004.3065	205.65434	71.97554	-952.66174	148.65964	44.98679	-973.82483				169.45006	25.427328	-895.83661	162.02045	635.21021	-1433.7958	123.88008	758.17285	-1396.0842	104.41515	666.36823	-1390.3958	200.03381	495.16617	-1425.5016				229.77167	302.35269	-1461.9688	175.35344	344.63361	-1414.0503	186.54514	264.00061	-1423.5157	279.47351	64.650772	-1454.4233				308.45544	61.279877	-1406.5734	185.24257	68.952507	-1453.6317	132.3132	49.501961	-1435.179				155.99982	16.922569	-1505.0341
593	2.96	106.64851	887.61951	-1089.6387	112.75694	895.64447	-1353.5609				302.75928	945.99982	-1247.4727	122.43204	695.95551	-1031.7935	139.00459	766.12457	-1032.9363	165.3763	637.41418	-994.93341	198.51709	476.84036	-992.3717				253.56108	289.06113	-953.71136	175.765	351.82877	-1001.4067	209.47472	255.28183	-963.95459	288.10965	75.064468	-946.93988				322.65042	65.023643	-1004.3704	205.66881	71.96225	-952.69873	148.65604	44.981701	-973.82446				169.48903	25.443594	-895.81915	162.12369	635.11603	-1433.4008	123.15102	758.05072	-1396.1068	104.01521	666.0274	-1390.4905	201.0742	495.29581	-1425.0649				230.72375	302.54248	-1461.6096	176.44176	344.89108	-1413.6619	187.32474	264.26373	-1423.2688	279.57703	64.634583	-1454.3387				308.52655	61.181461	-1406.5278	185.29512	68.944778	-1453.6377	132.328	49.506039	-1435.2008				156.00916	16.905085	-1505.0527
594	2.965	105.35766	887.93048	-1089.5938	111.68078	895.81177	-1353.5842				301.83047	945.58173	-1247.2604	121.55831	695.74335	-1031.8925	137.74922	766.11115	-1032.861	164.91513	637.29742	-995.25995	199.19243	476.91388	-992.93512				254.11565	289.17758	-954.125	176.54272	352.02771	-1001.9708	209.96072	255.48267	-964.3244	288.18637	75.101654	-946.95453				322.6991	64.953247	-1004.4301	205.68396	71.949028	-952.73279	148.65291	44.977097	-973.82227				169.53178	25.458391	-895.80078	162.22379	635.01331	-1433.0029	122.44754	757.91711	-1396.1289	103.61909	665.68835	-1390.5886	202.07579	495.41568	-1424.6373				231.64957	302.72705	-1461.2507	177.5023	345.14023	-1413.2715	188.08531	264.51831	-1423.0179	279.67682	64.62101	-1454.2524				308.59369	61.08511	-1406.4795	185.34435	68.938789	-1453.6415	132.34096	49.510204	-1435.2212				156.01807	16.888493	-1505.0699
595	2.97	104.09972	888.22095	-1089.546	110.62551	895.95703	-1353.6002				300.92975	945.13434	-1247.0476	120.70278	695.53522	-1031.9609	136.53046	766.09381	-1032.7693	164.46373	637.17957	-995.56061	199.84734	476.98508	-993.46307				254.65306	289.28729	-954.5166	177.29791	352.21909	-1002.507	210.43257	255.6743	-964.67578	288.26337	75.134209	-946.96887				322.74774	64.884827	-1004.486	205.69952	71.936104	-952.76434	148.65019	44.972984	-973.81891				169.57692	25.471798	-895.78186	162.32002	634.90363	-1432.6034	121.76896	757.77325	-1396.1467	103.22959	665.35248	-1390.6853	203.04057	495.52774	-1424.2192				232.55159	302.90805	-1460.8934	178.53783	345.38287	-1412.8799	188.82898	264.76627	-1422.764	279.77338	64.610565	-1454.1648				308.65726	60.991062	-1406.4285	185.3904	68.934586	-1453.6433	132.35229	49.514629	-1435.2402				156.0265	16.872917	-1505.0859
596	2.975	102.87515	888.49377	-1089.4951	109.59043	896.08386	-1353.6079				300.05618	944.66119	-1246.8348	119.86465	695.3324	-1031.9993	135.34828	766.07428	-1032.6614	164.02127	637.06079	-995.83643	200.47963	477.05414	-993.95673				255.17198	289.39096	-954.88654	178.02916	352.40256	-1003.0161	210.88896	255.85696	-965.00946	288.34006	75.162659	-946.98297				322.79602	64.818901	-1004.5388	205.71518	71.923698	-952.7937	148.6478	44.969376	-973.81451				169.62306	25.483896	-895.76318	162.41219	634.78845	-1432.2029	121.11468	757.62048	-1396.1573	102.85006	665.02081	-1390.7765	203.97121	495.63373	-1423.8119				233.433	303.08701	-1460.5382	179.55157	345.62073	-1412.488	189.55807	265.00946	-1422.5082	279.8671	64.603592	-1454.0764				308.71762	60.899403	-1406.3751	185.43369	68.932083	-1453.6437	132.3624	49.519493	-1435.2583				156.03447	16.858437	-1505.1006
597	2.98	101.68428	888.75116	-1089.4408	108.57495	896.19556	-1353.6053				299.20865	944.16516	-1246.6224	119.04288	695.1355	-1032.0073	134.20244	766.05414	-1032.5371	163.5867	636.94128	-996.08868	201.08685	477.12131	-994.41699				255.6709	289.48886	-955.23523	178.73494	352.57785	-1003.4991	211.32863	256.03079	-965.32605	288.41599	75.187592	-946.99713				322.84363	64.755829	-1004.589	205.73067	71.911949	-952.82135	148.64563	44.966267	-973.80951				169.66899	25.494774	-895.74481	162.50063	634.66895	-1431.8035	120.48406	757.45941	-1396.1571	102.4842	664.69373	-1390.8578	204.87094	495.73514	-1423.416				234.29733	303.26511	-1460.1865	180.54677	345.85532	-1412.0975	190.2751	265.24948	-1422.2516	279.95844	64.600281	-1453.9877				308.77505	60.810028	-1406.3204	185.47476	68.931145	-1453.6428	132.37175	49.524967	-1435.2751				156.04202	16.84511	-1505.1141
598	2.985	100.52721	888.995	-1089.3833	107.57864	896.29486	-1353.592				298.38614	943.6488	-1246.4109	118.23621	694.94489	-1031.986	133.09256	766.03436	-1032.3973	163.15877	636.82129	-996.31891	201.66647	477.1864	-994.84515				256.14835	289.58145	-955.56274	179.41359	352.74429	-1003.957	211.75024	256.19589	-965.62634	288.49045	75.209686	-947.01166				322.89038	64.695755	-1004.6365	205.7457	71.900932	-952.8476	148.64354	44.963608	-973.8042				169.71365	25.504467	-895.72736	162.58603	634.54584	-1431.4059	119.87626	757.29004	-1396.1434	102.13571	664.37073	-1390.9259	205.74345	495.83322	-1423.032				235.14819	303.44336	-1459.8394	181.52655	346.08786	-1411.7102	190.98253	265.48773	-1421.996	280.04794	64.600655	-1453.9				308.83008	60.722748	-1406.2648	185.51439	68.931488	-1453.6415	132.38089	49.531139	-1435.291				156.04922	16.832979	-1505.1263
599	2.99	99.403847	889.22681	-1089.3223	106.6013	896.38422	-1353.5665				297.58774	943.11383	-1246.2004	117.44331	694.76105	-1031.9363	132.01819	766.01538	-1032.2427	162.73613	636.70068	-996.52893	202.21591	477.24942	-995.24219				256.6026	289.66888	-955.86963	180.06355	352.90143	-1004.3907	212.1526	256.3522	-965.91083	288.56253	75.229538	-947.02686				322.93591	64.638702	-1004.6816	205.76003	71.890671	-952.8725	148.6414	44.961357	-973.79895				169.75616	25.512938	-895.71106	162.66946	634.41986	-1431.012	119.2901	757.11249	-1396.1134	101.80791	664.05084	-1390.9774	206.59253	495.92883	-1422.6605				235.98888	303.62259	-1459.498	182.49364	346.31909	-1411.3281	191.68254	265.72531	-1421.7437	280.13623	64.604546	-1453.8138				308.88303	60.637268	-1406.2084	185.55341	68.932785	-1453.64	132.39027	49.538029	-1435.3062				156.05614	16.822063	-1505.1379
